<!-- Generated by IcoMoon.io -->
<svg version="1.1" xmlns="http://www.w3.org/2000/svg" width="6400" height="1024" viewBox="0 0 6400 1024">
<title></title>
<g id="icomoon-ignore">
</g>
<path fill="#000" d="M23.097 409.726v-402.737h120.367v182.857l187.436-182.857h141.221v4.65l-202.531 195.556 207.181 197.917v4.614h-148.16l-185.147-182.857v182.857z"></path>
<path fill="#000" d="M529.979 409.708h120.367v-402.737h-120.367z"></path>
<path fill="#000" d="M727.864 409.726v-402.737h412.002v87.959h-291.635v74.080h259.227v80.984h-259.227v71.755h291.635v87.959z"></path>
<path fill="#000" d="M1217.383 409.726v-402.737h398.087v87.959h-277.72v92.573h263.841v83.345h-263.841v138.86z"></path>
<path fill="#000" d="M1686.080 409.726v-402.737h412.037v87.959h-291.706v74.080h259.263v80.984h-259.263v71.755h291.706v87.959z"></path>
<path fill="#000" d="M2169.837 409.726v-402.737h120.367v314.778h252.252v87.959z"></path>
<path fill="#000" d="M175.417 1019.2v-339.352h-173.021v-46.573h399.267v46.573h-173.021v339.352z"></path>
<path fill="#000" d="M449.285 1019.2v-385.925h328.299v46.573h-275.073v122.012h250.678v44.355h-250.678v126.376h275.073v46.609z"></path>
<path fill="#000" d="M920.007 1019.2c-53.226 0-79.839-26.613-79.839-73.222v-239.518c0-46.573 26.613-73.186 79.839-73.186h195.234c53.226 0 77.586 26.613 77.586 73.186v39.92h-50.973v-39.92c0-15.56-8.871-26.613-26.613-26.613h-195.234c-17.742 0-26.613 11.053-26.613 26.613v239.518c0 15.596 8.871 26.613 26.613 26.613h195.234c17.742 0 26.613-11.017 26.613-26.613v-39.884h50.973v39.884c0 46.609-24.36 73.222-77.586 73.222h-195.234z"></path>
<path fill="#000" d="M1268.191 1019.2v-385.925h53.226v168.585h272.855v-168.585h53.226v385.925h-53.226v-172.985h-272.855v172.985z"></path>
<path fill="#000" d="M1721.153 1019.2v-385.925h64.315l261.767 319.965v-319.965h53.226v385.925h-59.879l-266.202-324.937v324.937z"></path>
<path fill="#000" d="M2510.212 706.454c0-15.56-8.871-26.613-26.613-26.613h-232.9c-17.778 0-26.649 11.053-26.649 26.613v239.518c0 15.596 8.871 26.613 26.649 26.613h232.9c17.742 0 26.613-11.017 26.613-26.613v-239.518zM2250.699 1019.193c-53.262 0-79.875-26.613-79.875-73.222v-239.518c0-46.573 26.613-73.186 79.875-73.186h232.9c53.226 0 79.839 26.613 79.839 73.186v239.518c0 46.609-26.613 73.222-79.839 73.222h-232.9z"></path>
<path fill="#000" d="M2633.784 1019.2v-385.925h53.226v339.316h255.113v46.609z"></path>
<path fill="#000" d="M3326.9 706.454c0-15.56-8.871-26.613-26.613-26.613h-232.9c-17.742 0-26.649 11.053-26.649 26.613v239.518c0 15.596 8.907 26.613 26.649 26.613h232.9c17.742 0 26.613-11.017 26.613-26.613v-239.518zM3067.387 1019.193c-53.262 0-79.875-26.613-79.875-73.222v-239.518c0-46.573 26.613-73.186 79.875-73.186h232.9c53.226 0 79.839 26.613 79.839 73.186v239.518c0 46.609-26.613 73.222-79.839 73.222h-232.9z"></path>
<path fill="#000" d="M3536.736 1019.2c-53.226 0-79.839-26.613-79.839-73.222v-239.518c0-46.573 26.613-73.186 79.839-73.186h210.758c53.226 0 77.657 26.613 77.657 73.186v53.226h-51.044v-53.226c0-15.56-8.871-26.613-26.613-26.613h-210.758c-17.742 0-26.613 11.053-26.613 26.613v239.518c0 15.596 8.871 26.613 26.613 26.613h210.758c17.742 0 26.613-11.017 26.613-26.613v-82.021h-153.061v-44.355h204.105v126.376c0 46.609-24.431 73.222-77.657 73.222h-210.758z"></path>
<path fill="#000" d="M3905.473 1019.197h53.226v-385.925h-53.226z"></path>
<path fill="#000" d="M4041.851 1019.2v-385.925h328.335v46.573h-275.073v122.012h250.678v44.355h-250.678v126.376h275.073v46.609z"></path>
<path fill="#000" d="M4499.32 1019.2c-53.226 0-77.657-26.613-77.657-73.222v-39.884h51.044v39.884c0 15.596 8.871 26.613 26.613 26.613h201.887c17.742 0 26.613-11.017 26.613-26.613v-73.15c0-15.56-8.871-26.613-26.613-26.613h-195.198c-53.262 0-79.875-26.613-79.875-73.222v-66.533c0-46.573 26.613-73.186 79.875-73.186h192.945c53.226 0 77.621 26.613 77.621 73.186v28.831h-51.008v-28.831c0-15.56-8.871-26.613-26.613-26.613h-192.945c-17.778 0-26.649 11.053-26.649 26.613v66.533c0 15.524 8.871 26.613 26.649 26.613h195.198c53.226 0 79.839 26.613 79.839 73.222v73.15c0 46.609-26.613 73.222-79.839 73.222h-201.887z"></path>
<path fill="#000" d="M6091.526 407.62h-485.516v-183.957h485.516c66.464 0 102.239 25.569 102.239 91.961 0 66.428-35.774 91.997-102.239 91.997zM6091.526 798.615h-485.516v-183.957h485.516c66.464 0 102.239 25.569 102.239 91.997 0 66.392-35.774 91.961-102.239 91.961zM6234.66 0c-29.139 0-858.66 0-858.66 0v1022.278c0 0 829.521 0 858.66 0 99.678 0 163.546-63.904 163.546-163.582v-695.15c0-99.642-63.868-163.546-163.546-163.546z"></path>
</svg>
